<svg width="81" height="61" viewBox="0 0 81 61" fill="none" xmlns="http://www.w3.org/2000/svg">
<path d="M78.1388 17.6905H68.7841L66.1841 11.1904C63.5123 4.50762 57.1357 0.19043 49.9372 0.19043H30.0935C22.8966 0.19043 16.5184 4.50762 13.845 11.1904L11.245 17.6905H1.89187C0.671552 17.6905 -0.223762 18.8373 0.0731135 20.0201L1.01061 23.7701C1.21843 24.6045 1.96843 25.1905 2.82937 25.1905H5.96531C3.86687 27.0233 2.5153 29.6873 2.5153 32.6905V40.1905C2.5153 42.7092 3.47781 44.9827 5.01531 46.7421V55.1905C5.01531 57.9514 7.25437 60.1905 10.0153 60.1905H15.0153C17.7763 60.1905 20.0153 57.9514 20.0153 55.1905V50.1905H60.0154V55.1905C60.0154 57.9514 62.2544 60.1905 65.0154 60.1905H70.0154C72.7763 60.1905 75.0154 57.9514 75.0154 55.1905V46.7421C76.5529 44.9842 77.5154 42.7108 77.5154 40.1905V32.6905C77.5154 29.6873 76.1638 27.0233 74.067 25.1905H77.2029C78.0638 25.1905 78.8139 24.6045 79.0217 23.7701L79.9592 20.0201C80.2545 18.8373 79.3592 17.6905 78.1388 17.6905ZM23.1294 14.9045C24.2685 12.0576 27.0263 10.1904 30.0935 10.1904H49.9372C53.0044 10.1904 55.7623 12.0576 56.9013 14.9045L60.0154 22.6905H20.0153L23.1294 14.9045ZM15.0153 40.1592C12.0153 40.1592 10.0153 38.1655 10.0153 35.1749C10.0153 32.1842 12.0153 30.1905 15.0153 30.1905C18.0153 30.1905 22.5153 34.6764 22.5153 37.667C22.5153 40.6577 18.0153 40.1592 15.0153 40.1592ZM65.0154 40.1592C62.0154 40.1592 57.5154 40.6577 57.5154 37.667C57.5154 34.6764 62.0154 30.1905 65.0154 30.1905C68.0154 30.1905 70.0154 32.1842 70.0154 35.1749C70.0154 38.1655 68.0154 40.1592 65.0154 40.1592Z" fill="black"/>
</svg>
