<svg width="21" height="19" viewBox="0 0 21 19" fill="none" xmlns="http://www.w3.org/2000/svg">
<path d="M18.5979 3.71826H16.0119L13.3049 1.01126C13.2122 0.91822 13.102 0.844432 12.9807 0.794147C12.8593 0.743862 12.7292 0.718072 12.5979 0.718263H8.5979C8.46656 0.718072 8.33647 0.743862 8.21514 0.794147C8.0938 0.844432 7.98361 0.91822 7.8909 1.01126L5.1839 3.71826H2.5979C1.4949 3.71826 0.5979 4.61526 0.5979 5.71826V16.7183C0.5979 17.8213 1.4949 18.7183 2.5979 18.7183H18.5979C19.7009 18.7183 20.5979 17.8213 20.5979 16.7183V5.71826C20.5979 4.61526 19.7009 3.71826 18.5979 3.71826ZM10.5979 15.7183C7.8879 15.7183 5.5979 13.4283 5.5979 10.7183C5.5979 8.00726 7.8879 5.71826 10.5979 5.71826C13.3079 5.71826 15.5979 8.00726 15.5979 10.7183C15.5979 13.4283 13.3079 15.7183 10.5979 15.7183Z" fill="#99908C"/>
<path d="M11.5979 7.71826H9.5979V9.71826H7.5979V11.7183H9.5979V13.7183H11.5979V11.7183H13.5979V9.71826H11.5979V7.71826Z" fill="#99908C"/>
</svg>
