<svg width="31" height="31" viewBox="0 0 31 31" fill="none" xmlns="http://www.w3.org/2000/svg">
<circle cx="15.5979" cy="15.7183" r="15" fill="#FFCC2F"/>
<path d="M5.64692 13.123C5.53885 13.159 5.44306 13.2247 5.37044 13.3124C5.29781 13.4002 5.25128 13.5066 5.23612 13.6195C5.22097 13.7324 5.2378 13.8472 5.28471 13.951C5.33162 14.0548 5.40672 14.1434 5.50147 14.2066L10.8833 17.1734C10.9836 17.2287 11.0975 17.2545 11.2118 17.248C11.3262 17.2414 11.4363 17.2028 11.5297 17.1364L17.2472 13.0593C17.5235 12.8743 17.854 13.2048 17.6689 13.4811L13.5919 19.1986C13.5255 19.2919 13.4868 19.4021 13.4803 19.5164C13.4737 19.6308 13.4996 19.7447 13.5549 19.845L16.5216 25.2268C16.5849 25.3216 16.6734 25.3967 16.7772 25.4436C16.881 25.4905 16.9959 25.5073 17.1088 25.4921C17.2217 25.477 17.3281 25.4305 17.4159 25.3578C17.5036 25.2852 17.5692 25.1894 17.6052 25.0813L23.1997 8.29806C23.2353 8.19089 23.2404 8.07594 23.2144 7.96604C23.1884 7.85615 23.1323 7.75566 23.0525 7.67581C22.9726 7.59596 22.8721 7.5399 22.7622 7.51391C22.6523 7.48791 22.5374 7.493 22.4302 7.52861L5.64692 13.123Z" fill="white"/>
</svg>
