<svg width="63" height="55" viewBox="0 0 63 55" fill="none" xmlns="http://www.w3.org/2000/svg">
<path d="M36 0.450439C28.8396 0.450439 21.9708 3.29444 16.9092 8.35964C11.844 13.4248 9 20.29 9 27.4504H0L11.6712 39.1216L11.88 39.5428L24.0012 27.454H15.0012C15.0012 15.844 24.39 6.45524 36 6.45524C47.61 6.45524 56.9988 15.844 56.9988 27.454C56.9988 39.064 47.61 48.4528 36 48.4528C30.2112 48.4528 24.9588 46.084 21.1788 42.2716L16.92 46.5304C19.422 49.0432 22.392 51.0376 25.668 52.3984C28.944 53.7592 32.454 54.454 36 54.4504C43.1604 54.4504 50.0292 51.6064 55.0908 46.5412C60.1524 41.476 63 34.6108 63 27.4504C63 20.29 60.156 13.4212 55.0908 8.35964C50.0292 3.29444 43.1604 0.450439 36 0.450439ZM33.0012 15.4516V30.4528L45.7524 38.0128L48.0636 34.1716L37.5048 27.9004V15.4516H33.0048H33.0012Z" fill="#FFCC2F"/>
</svg>
