<svg width="76" height="54" viewBox="0 0 76 54" fill="none" xmlns="http://www.w3.org/2000/svg">
<path d="M0.218384 9.76221V46.4426L26.7 53.0342V16.3574L0.218384 9.76221Z" fill="#FFCC2F"/>
<path d="M46.8169 30.6962L48.6169 28.8962L56.7816 20.7278V9.76221L30.3 16.3574V53.0342L56.7816 46.4426V40.6646L48.6169 32.4962L46.8169 30.6962Z" fill="#FFCC2F"/>
<path d="M53.0592 6.9795L28.5 0.866699L3.9444 6.9795L28.5 13.0959L53.0592 6.9795Z" fill="#FFCC2F"/>
<path d="M75.57 36.2691V25.1235H73.3416V36.2691H75.57Z" fill="#FFCC2F"/>
<path d="M66.336 25.1235H59.9712V21.1455L50.4168 30.6963L59.9712 40.2471V36.2691H66.336V25.1235Z" fill="#FFCC2F"/>
<path d="M71.1169 25.1235H68.5681V36.2655H71.1169V25.1235Z" fill="#FFCC2F"/>
</svg>
