<svg width="43" height="43" viewBox="0 0 43 43" fill="none" xmlns="http://www.w3.org/2000/svg">
<circle cx="21.7031" cy="21.338" r="21" fill="#FFCC2F"/>
<path fill-rule="evenodd" clip-rule="evenodd" d="M18.0957 12.6405C19.0288 12.5975 19.3263 12.588 21.7031 12.588C24.0799 12.588 24.3774 12.5983 25.3097 12.6405C26.242 12.6826 26.8784 12.8314 27.4352 13.0469C28.0182 13.2673 28.5472 13.6117 28.9847 14.0572C29.4302 14.4939 29.7738 15.022 29.9934 15.6059C30.2097 16.1627 30.3577 16.7991 30.4006 17.7298C30.4436 18.6644 30.4531 18.9619 30.4531 21.338C30.4531 23.7148 30.4428 24.0123 30.4006 24.9453C30.3585 25.876 30.2097 26.5124 29.9934 27.0692C29.7738 27.6531 29.4296 28.1822 28.9847 28.6195C28.5472 29.065 28.0182 29.4086 27.4352 29.6282C26.8784 29.8445 26.242 29.9925 25.3113 30.0355C24.3774 30.0784 24.0799 30.088 21.7031 30.088C19.3263 30.088 19.0288 30.0776 18.0957 30.0355C17.1651 29.9933 16.5287 29.8445 15.9719 29.6282C15.3879 29.4086 14.8589 29.0644 14.4215 28.6195C13.9764 28.1826 13.6319 27.6538 13.4121 27.07C13.1965 26.5132 13.0486 25.8768 13.0056 24.9461C12.9627 24.0115 12.9531 23.714 12.9531 21.338C12.9531 18.9611 12.9635 18.6636 13.0056 17.7314C13.0478 16.7991 13.1965 16.1627 13.4121 15.6059C13.6322 15.0221 13.977 14.4933 14.4223 14.0564C14.8591 13.6113 15.3876 13.2668 15.9711 13.0469C16.5279 12.8314 17.1643 12.6834 18.0949 12.6405H18.0957ZM25.2389 14.2155C24.3162 14.1733 24.0394 14.1645 21.7031 14.1645C19.3669 14.1645 19.0901 14.1733 18.1673 14.2155C17.3138 14.2544 16.8509 14.3968 16.5422 14.5169C16.1341 14.676 15.8422 14.8645 15.536 15.1708C15.2457 15.4532 15.0222 15.797 14.8821 16.177C14.762 16.4857 14.6196 16.9486 14.5806 17.8022C14.5385 18.7249 14.5297 19.0017 14.5297 21.338C14.5297 23.6742 14.5385 23.951 14.5806 24.8737C14.6196 25.7273 14.762 26.1902 14.8821 26.4989C15.0221 26.8783 15.2456 27.2227 15.536 27.5051C15.8184 27.7955 16.1628 28.019 16.5422 28.159C16.8509 28.2791 17.3138 28.4215 18.1673 28.4605C19.0901 28.5026 19.3661 28.5114 21.7031 28.5114C24.0402 28.5114 24.3162 28.5026 25.2389 28.4605C26.0924 28.4215 26.5554 28.2791 26.864 28.159C27.2721 27.9999 27.564 27.8114 27.8703 27.5051C28.1606 27.2227 28.3841 26.8783 28.5241 26.4989C28.6443 26.1902 28.7866 25.7273 28.8256 24.8737C28.8678 23.951 28.8765 23.6742 28.8765 21.338C28.8765 19.0017 28.8678 18.7249 28.8256 17.8022C28.7866 16.9486 28.6443 16.4857 28.5241 16.177C28.3651 15.769 28.1765 15.477 27.8703 15.1708C27.5878 14.8805 27.244 14.6571 26.864 14.5169C26.5554 14.3968 26.0924 14.2544 25.2389 14.2155ZM20.5855 24.0353C21.2097 24.2952 21.9047 24.3302 22.5518 24.1345C23.199 23.9389 23.7581 23.5246 24.1337 22.9625C24.5094 22.4003 24.6782 21.7252 24.6113 21.0525C24.5445 20.3797 24.2462 19.751 23.7673 19.2737C23.4621 18.9687 23.093 18.7351 22.6866 18.5898C22.2802 18.4445 21.8466 18.3911 21.4172 18.4334C20.9877 18.4758 20.5729 18.6129 20.2027 18.8348C19.8326 19.0567 19.5162 19.3579 19.2764 19.7167C19.0367 20.0755 18.8794 20.4831 18.816 20.91C18.7527 21.3369 18.7847 21.7725 18.9099 22.1855C19.0351 22.5985 19.2503 22.9787 19.5401 23.2985C19.8298 23.6184 20.1868 23.87 20.5855 24.0353ZM18.5229 18.1577C18.9405 17.7401 19.4363 17.4088 19.982 17.1828C20.5277 16.9568 21.1125 16.8404 21.7031 16.8404C22.2937 16.8404 22.8786 16.9568 23.4243 17.1828C23.9699 17.4088 24.4657 17.7401 24.8834 18.1577C25.301 18.5754 25.6323 19.0712 25.8583 19.6168C26.0843 20.1625 26.2006 20.7473 26.2006 21.338C26.2006 21.9286 26.0843 22.5134 25.8583 23.0591C25.6323 23.6047 25.301 24.1005 24.8834 24.5182C24.0399 25.3616 22.8959 25.8355 21.7031 25.8355C20.5103 25.8355 19.3663 25.3616 18.5229 24.5182C17.6794 23.6747 17.2056 22.5308 17.2056 21.338C17.2056 20.1451 17.6794 19.0012 18.5229 18.1577ZM27.1981 17.5102C27.3016 17.4126 27.3845 17.2952 27.4418 17.165C27.4991 17.0348 27.5297 16.8944 27.5318 16.7521C27.5338 16.6098 27.5073 16.4686 27.4538 16.3368C27.4004 16.2049 27.321 16.0852 27.2204 15.9846C27.1198 15.884 27 15.8046 26.8682 15.7511C26.7363 15.6976 26.5951 15.6711 26.4528 15.6732C26.3106 15.6753 26.1702 15.7059 26.04 15.7632C25.9097 15.8205 25.7923 15.9033 25.6947 16.0068C25.5048 16.2081 25.4009 16.4754 25.4049 16.7521C25.409 17.0288 25.5207 17.293 25.7163 17.4886C25.912 17.6843 26.1762 17.796 26.4528 17.8C26.7295 17.804 26.9969 17.7001 27.1981 17.5102Z" fill="white"/>
</svg>
