<svg width="17" height="17" viewBox="0 0 17 17" fill="none" xmlns="http://www.w3.org/2000/svg">
<path d="M14.9594 4.77909L13.9424 0.999093C13.8074 0.486093 13.2764 0.180093 12.7634 0.315093C12.2504 0.450093 11.9444 0.981093 12.0794 1.49409V1.51209L5.92335 5.22909L2.21536 6.87609C0.973358 7.42509 0.325358 8.79309 0.676358 10.1071C1.02736 11.4211 2.27836 12.2761 3.62836 12.1321L3.99735 12.0961L5.87836 16.0021C6.02236 16.2991 6.35536 16.4521 6.67936 16.3711L6.86836 16.3171C7.23736 16.2181 7.45336 15.8401 7.35436 15.4711L6.38236 11.8441L7.66936 11.7091L14.8604 11.8441V11.8621C15.0044 12.3751 15.5354 12.6811 16.0484 12.5461C16.5614 12.4111 16.8674 11.8801 16.7324 11.3671L15.7154 7.58709C16.4894 7.38009 16.9484 6.58809 16.7414 5.81409C16.5344 5.04009 15.7424 4.58109 14.9684 4.78809L14.9594 4.77909Z" fill="#1E1C1B"/>
</svg>
