<svg width="15" height="17" viewBox="0 0 15 17" fill="none" xmlns="http://www.w3.org/2000/svg">
<path d="M14.5138 8.51C15.0718 7.277 15.1258 5.873 14.6578 4.604C14.3068 3.668 13.6948 2.858 12.9028 2.264C12.9208 2.228 12.9568 2.21 12.9658 2.174C13.2178 1.643 12.9838 1.00399 12.4528 0.760995C11.9218 0.508995 11.2828 0.742995 11.0398 1.27399C11.0218 1.30999 11.0218 1.34599 11.0128 1.38199C10.0498 1.15699 9.04177 1.202 8.09677 1.544C6.81877 2.003 5.77477 2.93899 5.19877 4.16299L3.20977 8.429C3.01177 8.852 2.32777 9.311 1.68877 9.446L1.03177 9.581C0.851766 9.617 0.707766 9.734 0.635766 9.896C0.500766 10.184 0.626766 10.517 0.914766 10.652L4.87477 12.497C4.42477 13.451 4.83877 14.594 5.80177 15.044C6.75577 15.494 7.89877 15.08 8.34877 14.117L12.3088 15.962C12.5968 16.097 12.9298 15.971 13.0648 15.683C13.1368 15.521 13.1368 15.332 13.0468 15.17L12.7318 14.576C12.4258 14 12.3358 13.181 12.5338 12.749L14.5228 8.483L14.5138 8.51Z" fill="#1E1C1B"/>
</svg>
