<svg width="14" height="17" viewBox="0 0 14 17" fill="none" xmlns="http://www.w3.org/2000/svg">
<path d="M13.5415 8.33779C13.5415 7.44679 12.8125 6.71779 11.9215 6.71779H11.1115V4.28779C11.1115 2.05579 9.29355 0.237793 7.06155 0.237793C4.82955 0.237793 3.01155 2.05579 3.01155 4.28779V6.71779H2.20155C1.31055 6.71779 0.581543 7.44679 0.581543 8.33779V14.8178C0.581543 15.7088 1.31055 16.4378 2.20155 16.4378H11.9215C12.8125 16.4378 13.5415 15.7088 13.5415 14.8178V8.33779ZM4.63154 4.28779C4.63154 2.94679 5.72055 1.85779 7.06155 1.85779C8.40255 1.85779 9.49154 2.94679 9.49154 4.28779V6.71779H4.63154V4.28779Z" fill="#1E1C1B"/>
</svg>
