<svg width="31" height="31" viewBox="0 0 31 31" fill="none" xmlns="http://www.w3.org/2000/svg">
<mask id="mask0_0_397" style="mask-type:alpha" maskUnits="userSpaceOnUse" x="0" y="0" width="31" height="31">
<path d="M15.4875 30.4584C23.6245 30.4584 30.2208 23.862 30.2208 15.725C30.2208 7.58804 23.6245 0.991699 15.4875 0.991699C7.35049 0.991699 0.75415 7.58804 0.75415 15.725C0.75415 23.862 7.35049 30.4584 15.4875 30.4584Z" fill="#7C7674"/>
</mask>
<g mask="url(#mask0_0_397)">
<path d="M15.4875 14.9207C18.4455 14.9207 20.8435 12.5228 20.8435 9.56474C20.8435 6.6067 18.4455 4.20874 15.4875 4.20874C12.5294 4.20874 10.1315 6.6067 10.1315 9.56474C10.1315 12.5228 12.5294 14.9207 15.4875 14.9207Z" fill="#7C7674"/>
<path d="M15.4874 41.0108C22.1445 41.0108 27.5411 35.6142 27.5411 28.9572C27.5411 22.3001 22.1445 16.9036 15.4874 16.9036C8.83043 16.9036 3.43384 22.3001 3.43384 28.9572C3.43384 35.6142 8.83043 41.0108 15.4874 41.0108Z" fill="#7C7674"/>
</g>
</svg>
