<svg width="31" height="31" viewBox="0 0 31 31" fill="none" xmlns="http://www.w3.org/2000/svg">
<circle cx="15.5979" cy="15.1299" r="15" fill="#FFCC2F"/>
<path d="M10.259 21.1281C10.1676 21.1279 10.0773 21.1087 9.99376 21.0718C9.91021 21.0348 9.83527 20.9809 9.77369 20.9134C9.71101 20.8465 9.66317 20.7671 9.63333 20.6804C9.60348 20.5937 9.5923 20.5017 9.60052 20.4103L9.76184 18.6364L17.2143 11.1866L19.5433 13.5149L12.0928 20.9641L10.3189 21.1254C10.299 21.1273 10.279 21.1282 10.259 21.1281ZM20.0082 13.0494L17.6799 10.7211L19.0765 9.32447C19.1376 9.26324 19.2102 9.21468 19.2902 9.18154C19.3701 9.1484 19.4558 9.13135 19.5423 9.13135C19.6289 9.13135 19.7145 9.1484 19.7945 9.18154C19.8744 9.21468 19.947 9.26324 20.0082 9.32447L21.4048 10.7211C21.466 10.7822 21.5146 10.8548 21.5477 10.9348C21.5808 11.0147 21.5979 11.1004 21.5979 11.1869C21.5979 11.2735 21.5808 11.3591 21.5477 11.4391C21.5146 11.519 21.466 11.5916 21.4048 11.6528L20.0088 13.0487L20.0082 13.0494Z" fill="white"/>
</svg>
