<svg width="59" height="59" viewBox="0 0 59 59" fill="none" xmlns="http://www.w3.org/2000/svg">
<path d="M58.2999 33.8568V25.044L51.4923 23.0928C51.0171 21.4404 50.3619 19.8636 49.5447 18.3912L52.9791 12.2028L46.7476 5.97119L40.5592 9.40559C39.0831 8.58839 37.5064 7.93679 35.8576 7.45799L33.9063 0.650391H25.0936L23.1424 7.45799C21.49 7.93319 19.9132 8.58839 18.4408 9.40559L12.2524 5.97119L6.02075 12.2028L9.45515 18.3912C8.63795 19.8672 7.98635 21.444 7.50755 23.0928L0.699951 25.044V33.8568L7.50755 35.808C7.98275 37.4604 8.63795 39.0372 9.45515 40.5096L6.02075 46.698L12.2524 52.9296L18.4408 49.4952C19.9167 50.3124 21.4936 50.964 23.1424 51.4428L25.0936 58.2504H33.9063L35.8576 51.4428C37.51 50.9676 39.0868 50.3124 40.5592 49.4952L46.7476 52.9296L52.9791 46.698L49.5447 40.5096C50.3619 39.0336 51.0135 37.4568 51.4923 35.808L58.2999 33.8568ZM40.3755 29.4504C40.3755 35.4588 35.5047 40.326 29.5 40.326C23.4951 40.326 18.6244 35.4552 18.6244 29.4504C18.6244 23.4456 23.4951 18.5748 29.5 18.5748C35.5047 18.5748 40.3755 23.4456 40.3755 29.4504Z" fill="#FFCC2F"/>
</svg>
